HIERARCHY
ROOT Hips
{
	OFFSET 0.000000 0.000000 0.000000
	CHANNELS 6 Xposition Yposition Zposition Zrotation Yrotation Xrotation 
	JOINT Hips_Spine
	{
		OFFSET 0.000000 0.000000 0.000000
		CHANNELS 3 Zrotation Yrotation Xrotation
		JOINT Spine
		{
			OFFSET 0.005100 8.711998 -0.691000
			CHANNELS 3 Zrotation Yrotation Xrotation
			JOINT Spine1
			{
				OFFSET -0.009200 8.660301 -1.275000
				CHANNELS 3 Zrotation Yrotation Xrotation
				JOINT Spine2
				{
					OFFSET 0.006300 9.852501 -1.857000
					CHANNELS 3 Zrotation Yrotation Xrotation
					JOINT Spine2_Neck
					{
						OFFSET 0.000000 0.000000 0.000000
						CHANNELS 3 Zrotation Yrotation Xrotation
						JOINT Neck
						{
							OFFSET 0.016300 11.420799 -0.263300
							CHANNELS 3 Zrotation Yrotation Xrotation
							End Site #name: Head
							{
								OFFSET -0.019200 9.262405 2.362500
							}
						}
					}
					JOINT Spine2_LeftShoulder
					{
						OFFSET 0.000000 0.000000 0.000000
						CHANNELS 3 Zrotation Yrotation Xrotation
						JOINT LeftShoulder
						{
							OFFSET 5.616900 6.732201 -0.345700
							CHANNELS 3 Zrotation Yrotation Xrotation
							JOINT LeftArm
							{
								OFFSET 10.664888 -0.183372 -2.440700
								CHANNELS 3 Zrotation Yrotation Xrotation
								JOINT LeftForeArm
								{
									OFFSET 27.459126 0.000000 0.000000
									CHANNELS 3 Zrotation Yrotation Xrotation
									End Site #name: LeftHand
									{
										OFFSET 21.306858 0.000000 0.000000
									}
								}
							}
						}
					}
					JOINT Spine2_RightShoulder
					{
						OFFSET 0.000000 0.000000 0.000000
						CHANNELS 3 Zrotation Yrotation Xrotation
						JOINT RightShoulder
						{
							OFFSET -5.580300 6.737503 -0.344400
							CHANNELS 3 Zrotation Yrotation Xrotation
							JOINT RightArm
							{
								OFFSET -10.679335 -0.188484 -2.383900
								CHANNELS 3 Zrotation Yrotation Xrotation
								JOINT RightForeArm
								{
									OFFSET -27.503529 0.000000 0.000000
									CHANNELS 3 Zrotation Yrotation Xrotation
									End Site #name: RightHand
									{
										OFFSET -21.306808 0.000000 0.000000
									}
								}
							}
						}
					}
				}
			}
		}
	}
	JOINT Hips_LeftUpLeg
	{
		OFFSET 0.000000 0.000000 0.000000
		CHANNELS 3 Zrotation Yrotation Xrotation
		JOINT LeftUpLeg
		{
			OFFSET 6.857700 -6.739601 0.312100
			CHANNELS 3 Zrotation Yrotation Xrotation
			JOINT LeftLeg
			{
				OFFSET -0.367590 -34.731552 -4.572400
				CHANNELS 3 Zrotation Yrotation Xrotation
				End Site #name: LeftFoot
				{
					OFFSET 0.367590 -34.656704 -6.067400
				}
			}
		}
	}
	JOINT Hips_RightUpLeg
	{
		OFFSET 0.000000 0.000000 0.000000
		CHANNELS 3 Zrotation Yrotation Xrotation
		JOINT RightUpLeg
		{
			OFFSET -6.876100 -6.733299 0.301000
			CHANNELS 3 Zrotation Yrotation Xrotation
			JOINT RightLeg
			{
				OFFSET 0.347353 -34.795158 -4.515900
				CHANNELS 3 Zrotation Yrotation Xrotation
				End Site #name: RightFoot
				{
					OFFSET -0.347353 -34.589367 -6.070300
				}
			}
		}
	}
}
MOTION
Frames: 6
Frame Time: 0.041667
0.033729 -0.043637 -0.035479 20.932035 -5.609954 -87.272850 -0.000000 0.000000 -0.000000 -4.152602 1.367024 4.420496 0.016977 0.765262 0.816835 0.000000 0.000000 0.000000 0.545805 0.451265 0.585321 -2.148179 0.509540 0.386169 -0.201977 0.583741 -0.078682 -9.902653 -20.079036 4.090273 -65.007345 26.956124 -18.485333 179.151842 -45.721886 177.627364 0.225453 0.160770 0.517824 3.919373 9.777268 1.492024 68.410190 -2.178595 -12.215404 -178.471465 48.952019 179.769663 -0.000000 0.000000 0.000000 -5.561771 30.924476 -28.573752 -7.769230 4.822461 27.427035 -0.000000 0.000000 -0.000000 2.591277 -15.418699 -17.384937 3.502776 -5.669872 24.156271 
0.007929 -0.126611 -0.021960 11.827881 -3.597928 -92.232243 0.000000 0.000000 -0.000000 -1.467777 2.948791 0.999782 -0.068547 0.919227 -1.701420 0.000000 0.000000 0.000000 -0.101272 0.474322 -1.683629 -0.994942 0.113398 0.452980 -0.255884 0.454729 -1.854535 -8.128217 -18.646865 3.887868 -70.024393 17.058321 -14.169465 179.410759 -36.440274 179.149383 -0.153095 0.518604 -1.228003 -3.939133 8.814009 0.235610 76.636957 -6.867314 -1.864502 -179.051911 38.512197 179.262247 0.000000 0.000000 0.000000 -11.965566 19.761499 -29.196949 -13.067533 0.463623 27.444194 -0.000000 0.000000 0.000000 3.153666 -12.025930 -10.560335 5.385803 -7.040911 16.433842 
0.006004 -0.183670 0.002310 8.785230 -3.141451 -90.300562 -0.000000 0.000000 -0.000000 -1.602422 3.636624 -1.770358 -0.123779 1.079178 -3.516478 0.000000 0.000000 0.000000 -0.123549 0.825355 -3.725660 -0.398834 -0.876555 0.836390 -0.316983 0.667468 -4.100212 -6.967682 -16.439473 2.995730 -67.780560 15.825423 -10.513474 178.856269 -25.075487 179.413706 -0.250354 0.996757 -2.871857 -3.878792 9.270990 0.046265 75.349253 -13.557432 1.371900 -179.359893 37.698573 179.431469 -0.000000 0.000000 0.000000 -13.712670 17.263822 -28.760810 -15.834464 -2.323201 27.846753 -0.000000 0.000000 0.000000 3.243384 -11.931439 -8.857957 5.956238 -7.336421 12.772975 
0.005229 -0.233224 0.017226 8.690526 -3.160122 -90.560264 -0.000000 0.000000 -0.000000 -1.341831 3.761341 -2.307342 -0.102873 1.189092 -4.437214 0.000000 0.000000 0.000000 -0.030096 1.078227 -4.567858 -0.061202 -1.291526 0.938455 -0.263498 0.903335 -4.936214 -7.023216 -16.395104 2.981622 -68.537044 16.587262 -10.230993 178.943969 -24.193770 179.674499 -0.226743 1.162177 -3.763488 -2.497876 9.136073 -0.239885 73.942634 -16.825323 3.240387 -179.473572 37.077225 179.430902 -0.000000 0.000000 0.000000 -13.931834 16.887521 -28.126145 -15.660068 -2.618136 27.727644 -0.000000 0.000000 0.000000 3.252701 -12.001593 -8.463570 5.936498 -7.331750 11.780696 
0.008251 -0.268336 0.022045 8.529918 -3.264614 -90.864015 -0.000000 0.000000 -0.000000 -1.293260 3.775081 -1.923334 -0.126159 1.212253 -4.492623 0.000000 0.000000 0.000000 0.080252 1.105629 -4.468867 0.151755 -1.376441 0.967635 -0.183310 1.041992 -4.958202 -6.443211 -16.547595 2.869581 -68.176791 19.012497 -9.783758 178.966936 -24.717933 179.752205 -0.124611 1.180591 -3.881759 -2.043250 9.294171 -0.571988 73.180277 -17.478183 3.264856 -179.497819 38.832479 179.470671 -0.000000 0.000000 0.000000 -13.920068 16.933645 -27.832202 -14.941618 -2.366322 27.723113 -0.000000 0.000000 0.000000 3.284224 -11.969846 -8.171362 5.693441 -7.697602 11.330910 
0.012067 -0.292269 0.020791 8.528512 -3.301501 -90.978418 -0.000000 0.000000 -0.000000 -1.342308 3.897153 -1.677728 -0.154684 1.166355 -4.204654 0.000000 0.000000 0.000000 0.062573 1.058806 -4.233330 0.239165 -1.366276 0.999232 -0.152082 0.948782 -4.596164 -5.965428 -16.521822 2.707800 -67.023198 20.051046 -8.751972 178.868831 -27.422891 179.790806 -0.119972 1.127731 -3.758361 -1.990137 9.267344 -0.517707 72.905707 -17.148932 2.678459 -179.487038 40.336031 179.487053 -0.000000 0.000000 0.000000 -14.005776 16.579610 -27.664310 -14.578109 -2.266575 27.722806 -0.000000 0.000000 0.000000 3.242838 -11.950629 -8.088299 5.468784 -8.162992 11.304582 
